<svg xmlns="http://www.w3.org/2000/svg" xmlns:xlink="http://www.w3.org/1999/xlink" width="3840" zoomAndPan="magnify" viewBox="0 0 2880 2879.999992" height="3840" preserveAspectRatio="xMidYMid meet" version="1.0"><defs><clipPath id="d2bf547df3"><path d="M 104.855469 968.742188 L 743 968.742188 L 743 1558 L 104.855469 1558 Z M 104.855469 968.742188 " clip-rule="nonzero"/></clipPath><clipPath id="da5308d8bf"><path d="M 787 968.742188 L 1384 968.742188 L 1384 1558 L 787 1558 Z M 787 968.742188 " clip-rule="nonzero"/></clipPath><clipPath id="e77d45e801"><path d="M 1429 968.742188 L 1946 968.742188 L 1946 1558 L 1429 1558 Z M 1429 968.742188 " clip-rule="nonzero"/></clipPath><clipPath id="5fbe11492f"><path d="M 1989 968.742188 L 2378 968.742188 L 2378 1558 L 1989 1558 Z M 1989 968.742188 " clip-rule="nonzero"/></clipPath><clipPath id="7ee4644c1a"><path d="M 2644 968.742188 L 2774.855469 968.742188 L 2774.855469 1555 L 2644 1555 Z M 2644 968.742188 " clip-rule="nonzero"/></clipPath><clipPath id="9cf0ff2391"><path d="M 2644 1674 L 2774.855469 1674 L 2774.855469 1805 L 2644 1805 Z M 2644 1674 " clip-rule="nonzero"/></clipPath><clipPath id="2fe3fe2a3e"><path d="M 111 1703 L 188 1703 L 188 1806.492188 L 111 1806.492188 Z M 111 1703 " clip-rule="nonzero"/></clipPath><clipPath id="82ea10920f"><path d="M 207 1700 L 273 1700 L 273 1806.492188 L 207 1806.492188 Z M 207 1700 " clip-rule="nonzero"/></clipPath><clipPath id="625bd167da"><path d="M 458 1703 L 534 1703 L 534 1806.492188 L 458 1806.492188 Z M 458 1703 " clip-rule="nonzero"/></clipPath><clipPath id="87375c0b64"><path d="M 693 1700 L 785 1700 L 785 1806.492188 L 693 1806.492188 Z M 693 1700 " clip-rule="nonzero"/></clipPath><clipPath id="e35cf59a95"><path d="M 1410 1700 L 1476 1700 L 1476 1806.492188 L 1410 1806.492188 Z M 1410 1700 " clip-rule="nonzero"/></clipPath><clipPath id="47385845aa"><path d="M 1496 1703 L 1573 1703 L 1573 1806.492188 L 1496 1806.492188 Z M 1496 1703 " clip-rule="nonzero"/></clipPath><clipPath id="aefb944bdd"><path d="M 1592 1700 L 1658 1700 L 1658 1806.492188 L 1592 1806.492188 Z M 1592 1700 " clip-rule="nonzero"/></clipPath></defs><g clip-path="url(#d2bf547df3)"><path fill="#ff0000" d="M 610.128906 1557.058594 L 613.289062 1140.75 L 610.910156 1140.75 L 466.125 1557.058594 L 371.71875 1557.058594 L 230.867188 1140.75 L 228.488281 1140.75 L 231.648438 1557.058594 L 104.992188 1557.058594 L 104.992188 968.742188 L 296.417969 968.742188 L 423.269531 1345.980469 L 426.425781 1345.980469 L 547.699219 968.742188 L 742.285156 968.742188 L 742.285156 1557.058594 L 610.089844 1557.058594 Z M 610.128906 1557.058594 " fill-opacity="1" fill-rule="nonzero"/></g><g clip-path="url(#da5308d8bf)"><path fill="#ff0000" d="M 1234.046875 1557.058594 L 1190.761719 1441.554688 L 975.199219 1441.554688 L 934.292969 1557.058594 L 787.945312 1557.058594 L 1021.601562 968.742188 L 1152.195312 968.742188 L 1383.511719 1557.058594 L 1234.007812 1557.058594 Z M 1084.539062 1125.777344 L 1013.726562 1327.691406 L 1153.792969 1327.691406 Z M 1084.539062 1125.777344 " fill-opacity="1" fill-rule="nonzero"/></g><g clip-path="url(#e77d45e801)"><path fill="#ff0000" d="M 1769.832031 1557.058594 L 1562.886719 1286.160156 L 1561.328125 1286.160156 L 1561.328125 1557.058594 L 1429.917969 1557.058594 L 1429.917969 968.742188 L 1561.328125 968.742188 L 1561.328125 1208.054688 L 1563.707031 1208.054688 L 1762.734375 968.742188 L 1931.113281 968.742188 L 1691.140625 1239.640625 L 1945.269531 1557.058594 Z M 1769.832031 1557.058594 " fill-opacity="1" fill-rule="nonzero"/></g><g clip-path="url(#5fbe11492f)"><path fill="#ff0000" d="M 1989.335938 1557.058594 L 1989.335938 968.742188 L 2363.839844 968.742188 L 2363.839844 1088.417969 L 2119.148438 1088.417969 L 2119.148438 1199.75 L 2350.464844 1199.75 L 2350.464844 1313.574219 L 2119.148438 1313.574219 L 2119.148438 1435.746094 L 2377.996094 1435.746094 L 2377.996094 1557.058594 Z M 1989.335938 1557.058594 " fill-opacity="1" fill-rule="nonzero"/></g><g clip-path="url(#7ee4644c1a)"><path fill="#ff0000" d="M 2644.171875 968.742188 L 2775 968.742188 L 2775 1554.523438 L 2644.171875 1554.523438 Z M 2644.171875 968.742188 " fill-opacity="1" fill-rule="nonzero"/></g><g clip-path="url(#9cf0ff2391)"><path fill="#ff0000" d="M 2644.171875 1674.003906 L 2775 1674.003906 L 2775 1804.828125 L 2644.171875 1804.828125 Z M 2644.171875 1674.003906 " fill-opacity="1" fill-rule="nonzero"/></g><g clip-path="url(#2fe3fe2a3e)"><path fill="#ff0000" d="M 149.679688 1806.855469 C 142.078125 1806.855469 135.839844 1805.53125 131.003906 1802.917969 C 126.167969 1800.304688 122.308594 1796.992188 119.460938 1793.015625 C 116.613281 1789.035156 114.625 1784.667969 113.53125 1779.949219 C 112.441406 1775.230469 111.894531 1770.785156 111.894531 1766.613281 L 111.894531 1703.324219 L 122.152344 1703.324219 L 122.152344 1765.484375 C 122.152344 1769.578125 122.617188 1773.554688 123.59375 1777.378906 C 124.53125 1781.238281 126.089844 1784.667969 128.234375 1787.632812 C 130.378906 1790.636719 133.1875 1793.054688 136.734375 1794.925781 C 140.246094 1796.757812 144.574219 1797.695312 149.71875 1797.695312 C 154.867188 1797.695312 159.195312 1796.757812 162.707031 1794.925781 C 166.214844 1793.054688 169.0625 1790.636719 171.207031 1787.632812 C 173.351562 1784.628906 174.871094 1781.238281 175.847656 1777.378906 C 176.78125 1773.515625 177.289062 1769.578125 177.289062 1765.484375 L 177.289062 1703.324219 L 187.546875 1703.324219 L 187.546875 1766.613281 C 187.546875 1770.785156 187 1775.234375 185.90625 1779.949219 C 184.816406 1784.667969 182.828125 1788.996094 179.980469 1793.015625 C 177.132812 1796.992188 173.273438 1800.304688 168.359375 1802.917969 C 163.445312 1805.53125 157.246094 1806.855469 149.757812 1806.855469 Z M 149.679688 1806.855469 " fill-opacity="1" fill-rule="nonzero"/></g><g clip-path="url(#82ea10920f)"><path fill="#ff0000" d="M 262.609375 1719.625 C 260.425781 1716.585938 257.617188 1714.128906 254.1875 1712.292969 C 250.753906 1710.460938 246.621094 1709.527344 241.785156 1709.527344 C 239.328125 1709.527344 236.796875 1709.917969 234.222656 1710.65625 C 231.648438 1711.398438 229.308594 1712.566406 227.242188 1714.167969 C 225.136719 1715.726562 223.460938 1717.714844 222.171875 1720.09375 C 220.886719 1722.472656 220.261719 1725.28125 220.261719 1728.515625 C 220.261719 1731.753906 220.886719 1734.40625 222.09375 1736.511719 C 223.34375 1738.617188 224.980469 1740.371094 227.007812 1741.851562 C 229.035156 1743.335938 231.375 1744.542969 233.988281 1745.480469 C 236.601562 1746.414062 239.328125 1747.390625 242.175781 1748.324219 C 245.6875 1749.457031 249.195312 1750.703125 252.78125 1752.03125 C 256.332031 1753.355469 259.527344 1755.109375 262.375 1757.253906 C 265.222656 1759.402344 267.523438 1762.089844 269.355469 1765.367188 C 271.1875 1768.640625 272.046875 1772.816406 272.046875 1777.84375 C 272.046875 1782.875 271.070312 1787.242188 269.160156 1790.90625 C 267.25 1794.574219 264.753906 1797.578125 261.675781 1799.953125 C 258.59375 1802.332031 255.082031 1804.089844 251.144531 1805.21875 C 247.207031 1806.351562 243.230469 1806.933594 239.25 1806.933594 C 236.210938 1806.933594 233.167969 1806.625 230.128906 1806 C 227.085938 1805.375 224.199219 1804.4375 221.429688 1803.230469 C 218.664062 1801.984375 216.128906 1800.421875 213.75 1798.511719 C 211.371094 1796.601562 209.265625 1794.417969 207.472656 1791.960938 L 216.324219 1785.410156 C 218.507812 1789.035156 221.585938 1792.039062 225.527344 1794.457031 C 229.464844 1796.875 234.105469 1798.082031 239.40625 1798.082031 C 241.980469 1798.082031 244.59375 1797.691406 247.246094 1796.875 C 249.898438 1796.054688 252.316406 1794.847656 254.460938 1793.167969 C 256.605469 1791.492188 258.359375 1789.464844 259.722656 1787.046875 C 261.089844 1784.628906 261.789062 1781.785156 261.789062 1778.585938 C 261.789062 1775.078125 261.089844 1772.152344 259.722656 1769.8125 C 258.359375 1767.472656 256.527344 1765.523438 254.226562 1763.960938 C 251.925781 1762.402344 249.3125 1761.078125 246.386719 1760.023438 C 243.425781 1758.972656 240.34375 1757.917969 237.105469 1756.90625 C 233.792969 1755.851562 230.515625 1754.683594 227.28125 1753.355469 C 224.042969 1752.03125 221.160156 1750.277344 218.585938 1748.171875 C 216.011719 1746.023438 213.945312 1743.414062 212.382812 1740.253906 C 210.824219 1737.09375 210.042969 1733.273438 210.042969 1728.710938 C 210.042969 1723.875 211.019531 1719.664062 212.96875 1716.15625 C 214.917969 1712.644531 217.453125 1709.722656 220.613281 1707.460938 C 223.730469 1705.199219 227.203125 1703.519531 231.023438 1702.46875 C 234.804688 1701.414062 238.589844 1700.910156 242.292969 1700.910156 C 249.117188 1700.910156 254.964844 1702.117188 259.839844 1704.535156 C 264.675781 1706.953125 268.34375 1709.839844 270.796875 1713.152344 L 262.6875 1719.703125 Z M 262.609375 1719.625 " fill-opacity="1" fill-rule="nonzero"/></g><path fill="#ff0000" d="M 304.375 1795.160156 L 358.417969 1795.160156 L 358.417969 1804.285156 L 294.117188 1804.285156 L 294.117188 1703.363281 L 356.703125 1703.363281 L 356.703125 1712.488281 L 304.375 1712.488281 L 304.375 1747.117188 L 353.273438 1747.117188 L 353.273438 1756.242188 L 304.375 1756.242188 Z M 304.375 1795.160156 " fill-opacity="1" fill-rule="nonzero"/><path fill="#ff0000" d="M 388.757812 1804.285156 L 378.503906 1804.285156 L 378.503906 1703.363281 L 439.371094 1703.363281 L 439.371094 1712.488281 L 388.757812 1712.488281 L 388.757812 1747.429688 L 435.785156 1747.429688 L 435.785156 1756.554688 L 388.757812 1756.554688 L 388.757812 1804.324219 Z M 388.757812 1804.285156 " fill-opacity="1" fill-rule="nonzero"/><g clip-path="url(#625bd167da)"><path fill="#ff0000" d="M 495.835938 1806.855469 C 488.234375 1806.855469 481.992188 1805.53125 477.160156 1802.917969 C 472.324219 1800.304688 468.460938 1796.992188 465.617188 1793.015625 C 462.769531 1789.035156 460.78125 1784.667969 459.6875 1779.949219 C 458.597656 1775.230469 458.050781 1770.785156 458.050781 1766.613281 L 458.050781 1703.324219 L 468.308594 1703.324219 L 468.308594 1765.484375 C 468.308594 1769.578125 468.773438 1773.554688 469.75 1777.378906 C 470.6875 1781.238281 472.246094 1784.667969 474.390625 1787.632812 C 476.535156 1790.636719 479.34375 1793.054688 482.890625 1794.925781 C 486.402344 1796.757812 490.730469 1797.695312 495.875 1797.695312 C 501.023438 1797.695312 505.351562 1796.757812 508.863281 1794.925781 C 512.371094 1793.054688 515.21875 1790.636719 517.363281 1787.632812 C 519.507812 1784.628906 521.027344 1781.238281 522.003906 1777.378906 C 522.9375 1773.515625 523.445312 1769.578125 523.445312 1765.484375 L 523.445312 1703.324219 L 533.699219 1703.324219 L 533.699219 1766.613281 C 533.699219 1770.785156 533.15625 1775.234375 532.0625 1779.949219 C 530.972656 1784.667969 528.984375 1788.996094 526.136719 1793.015625 C 523.289062 1796.992188 519.429688 1800.304688 514.515625 1802.917969 C 509.601562 1805.53125 503.402344 1806.855469 495.914062 1806.855469 Z M 495.835938 1806.855469 " fill-opacity="1" fill-rule="nonzero"/></g><path fill="#ff0000" d="M 570.121094 1795.160156 L 617.148438 1795.160156 L 617.148438 1804.285156 L 559.828125 1804.285156 L 559.828125 1703.363281 L 570.082031 1703.363281 L 570.082031 1795.160156 Z M 570.121094 1795.160156 " fill-opacity="1" fill-rule="nonzero"/><g clip-path="url(#87375c0b64)"><path fill="#ff0000" d="M 784.203125 1787.90625 C 782.488281 1790.480469 780.421875 1792.898438 778.003906 1795.199219 C 775.585938 1797.5 772.777344 1799.488281 769.578125 1801.242188 C 766.382812 1802.996094 762.871094 1804.363281 759.011719 1805.375 C 755.152344 1806.390625 750.941406 1806.894531 746.378906 1806.894531 C 738.773438 1806.894531 731.753906 1805.570312 725.28125 1802.917969 C 718.808594 1800.265625 713.273438 1796.5625 708.59375 1791.882812 C 703.953125 1787.164062 700.285156 1781.589844 697.671875 1775.117188 C 695.0625 1768.640625 693.734375 1761.585938 693.734375 1753.863281 C 693.734375 1746.140625 695.0625 1739.085938 697.710938 1732.609375 C 700.363281 1726.136719 704.070312 1720.5625 708.75 1715.84375 C 713.425781 1711.125 719.003906 1707.460938 725.4375 1704.808594 C 731.871094 1702.15625 738.8125 1700.832031 746.339844 1700.832031 C 750.042969 1700.832031 753.671875 1701.21875 757.257812 1702 C 760.804688 1702.78125 764.160156 1703.871094 767.316406 1705.277344 C 770.476562 1706.679688 773.324219 1708.355469 775.859375 1710.304688 C 778.433594 1712.257812 780.578125 1714.480469 782.292969 1716.972656 L 773.753906 1723.253906 C 772.699219 1721.652344 771.296875 1720.015625 769.539062 1718.417969 C 767.785156 1716.816406 765.71875 1715.375 763.339844 1714.128906 C 760.960938 1712.878906 758.386719 1711.90625 755.582031 1711.125 C 752.773438 1710.382812 749.769531 1709.996094 746.535156 1709.996094 C 739.984375 1709.996094 734.09375 1711.164062 728.910156 1713.542969 C 723.722656 1715.921875 719.316406 1719.117188 715.726562 1723.136719 C 712.101562 1727.152344 709.371094 1731.832031 707.460938 1737.132812 C 705.550781 1742.4375 704.613281 1748.015625 704.613281 1753.902344 C 704.613281 1759.789062 705.589844 1765.367188 707.539062 1770.671875 C 709.488281 1775.972656 712.257812 1780.652344 715.882812 1784.667969 C 719.511719 1788.683594 723.878906 1791.882812 729.0625 1794.261719 C 734.25 1796.640625 740.0625 1797.808594 746.535156 1797.808594 C 752.34375 1797.808594 757.84375 1796.601562 763.066406 1794.261719 C 768.292969 1791.882812 772.660156 1788.101562 776.171875 1782.835938 L 784.164062 1787.984375 Z M 784.203125 1787.90625 " fill-opacity="1" fill-rule="nonzero"/></g><path fill="#ff0000" d="M 812.164062 1804.285156 L 801.90625 1804.285156 L 801.90625 1703.363281 L 831.542969 1703.363281 C 836.496094 1703.363281 841.058594 1703.832031 845.308594 1704.808594 C 849.519531 1705.742188 853.183594 1707.304688 856.304688 1709.449219 C 859.386719 1711.59375 861.800781 1714.363281 863.519531 1717.792969 C 865.234375 1721.226562 866.09375 1725.398438 866.09375 1730.347656 C 866.09375 1734.054688 865.429688 1737.445312 864.101562 1740.488281 C 862.777344 1743.53125 860.984375 1746.179688 858.683594 1748.402344 C 856.421875 1750.625 853.691406 1752.421875 850.570312 1753.746094 C 847.453125 1755.070312 844.019531 1755.929688 840.316406 1756.320312 L 869.835938 1804.363281 L 857.277344 1804.363281 L 829.320312 1757.179688 L 812.203125 1757.179688 L 812.203125 1804.363281 Z M 812.164062 1748.246094 L 829.984375 1748.246094 C 838.25 1748.246094 844.605469 1746.765625 849.089844 1743.765625 C 853.574219 1740.761719 855.796875 1736.277344 855.796875 1730.308594 C 855.796875 1726.996094 855.171875 1724.1875 853.925781 1721.886719 C 852.675781 1719.625 850.960938 1717.753906 848.777344 1716.3125 C 846.59375 1714.867188 843.941406 1713.855469 840.785156 1713.191406 C 837.664062 1712.527344 834.195312 1712.179688 830.371094 1712.179688 L 812.125 1712.179688 L 812.125 1748.25 Z M 812.164062 1748.246094 " fill-opacity="1" fill-rule="nonzero"/><path fill="#ff0000" d="M 897.5625 1795.160156 L 951.605469 1795.160156 L 951.605469 1804.285156 L 887.304688 1804.285156 L 887.304688 1703.363281 L 949.890625 1703.363281 L 949.890625 1712.488281 L 897.5625 1712.488281 L 897.5625 1747.117188 L 946.460938 1747.117188 L 946.460938 1756.242188 L 897.5625 1756.242188 Z M 897.5625 1795.160156 " fill-opacity="1" fill-rule="nonzero"/><path fill="#ff0000" d="M 970.988281 1804.285156 L 959.71875 1804.285156 L 1003.351562 1703.363281 L 1013.335938 1703.363281 L 1056.660156 1804.285156 L 1045.273438 1804.285156 L 1034.160156 1777.765625 L 981.984375 1777.765625 Z M 985.804688 1768.371094 L 1030.296875 1768.371094 L 1008.070312 1714.75 L 985.84375 1768.371094 Z M 985.804688 1768.371094 " fill-opacity="1" fill-rule="nonzero"/><path fill="#ff0000" d="M 1095.304688 1804.285156 L 1085.046875 1804.285156 L 1085.046875 1712.488281 L 1051.277344 1712.488281 L 1051.277344 1703.363281 L 1129.109375 1703.363281 L 1129.109375 1712.488281 L 1095.339844 1712.488281 L 1095.339844 1804.285156 Z M 1095.304688 1804.285156 " fill-opacity="1" fill-rule="nonzero"/><path fill="#ff0000" d="M 1144.203125 1703.363281 L 1154.457031 1703.363281 L 1154.457031 1804.285156 L 1144.203125 1804.285156 Z M 1144.203125 1703.363281 " fill-opacity="1" fill-rule="nonzero"/><path fill="#ff0000" d="M 1212.167969 1791.023438 L 1212.441406 1791.023438 L 1245.238281 1703.363281 L 1256.234375 1703.363281 L 1217.589844 1804.285156 L 1206.75 1804.285156 L 1168.261719 1703.363281 L 1179.375 1703.363281 L 1212.171875 1791.023438 Z M 1212.167969 1791.023438 " fill-opacity="1" fill-rule="nonzero"/><path fill="#ff0000" d="M 1280.332031 1795.160156 L 1334.378906 1795.160156 L 1334.378906 1804.285156 L 1270.078125 1804.285156 L 1270.078125 1703.363281 L 1332.664062 1703.363281 L 1332.664062 1712.488281 L 1280.332031 1712.488281 L 1280.332031 1747.117188 L 1329.230469 1747.117188 L 1329.230469 1756.242188 L 1280.332031 1756.242188 Z M 1280.332031 1795.160156 " fill-opacity="1" fill-rule="nonzero"/><g clip-path="url(#e35cf59a95)"><path fill="#ff0000" d="M 1466.0625 1719.625 C 1463.878906 1716.585938 1461.074219 1714.128906 1457.640625 1712.292969 C 1454.210938 1710.460938 1450.078125 1709.527344 1445.242188 1709.527344 C 1442.785156 1709.527344 1440.25 1709.917969 1437.675781 1710.65625 C 1435.101562 1711.398438 1432.761719 1712.566406 1430.695312 1714.167969 C 1428.589844 1715.726562 1426.914062 1717.714844 1425.625 1720.09375 C 1424.339844 1722.472656 1423.714844 1725.28125 1423.714844 1728.515625 C 1423.714844 1731.753906 1424.339844 1734.40625 1425.550781 1736.511719 C 1426.796875 1738.617188 1428.394531 1740.371094 1430.460938 1741.851562 C 1432.488281 1743.335938 1434.828125 1744.542969 1437.441406 1745.480469 C 1440.054688 1746.414062 1442.785156 1747.390625 1445.632812 1748.324219 C 1449.140625 1749.457031 1452.648438 1750.703125 1456.238281 1752.03125 C 1459.785156 1753.355469 1462.984375 1755.109375 1465.832031 1757.253906 C 1468.675781 1759.402344 1471.015625 1762.089844 1472.8125 1765.367188 C 1474.605469 1768.640625 1475.5 1772.816406 1475.5 1777.84375 C 1475.5 1782.875 1474.527344 1787.242188 1472.617188 1790.90625 C 1470.703125 1794.574219 1468.210938 1797.578125 1465.128906 1799.953125 C 1462.046875 1802.332031 1458.539062 1804.089844 1454.601562 1805.21875 C 1450.660156 1806.351562 1446.683594 1806.933594 1442.707031 1806.933594 C 1439.664062 1806.933594 1436.625 1806.625 1433.582031 1806 C 1430.539062 1805.375 1427.65625 1804.4375 1424.886719 1803.230469 C 1422.117188 1801.984375 1419.582031 1800.421875 1417.203125 1798.511719 C 1414.824219 1796.601562 1412.71875 1794.417969 1410.925781 1791.960938 L 1419.777344 1785.410156 C 1421.960938 1789.035156 1425.042969 1792.039062 1428.980469 1794.457031 C 1432.917969 1796.875 1437.558594 1798.082031 1442.863281 1798.082031 C 1445.4375 1798.082031 1448.050781 1797.691406 1450.699219 1796.875 C 1453.351562 1796.054688 1455.769531 1794.847656 1457.914062 1793.167969 C 1460.058594 1791.492188 1461.8125 1789.464844 1463.179688 1787.046875 C 1464.542969 1784.628906 1465.246094 1781.785156 1465.246094 1778.585938 C 1465.246094 1775.078125 1464.542969 1772.152344 1463.179688 1769.8125 C 1461.8125 1767.472656 1459.980469 1765.523438 1457.679688 1763.960938 C 1455.378906 1762.402344 1452.765625 1761.078125 1449.84375 1760.023438 C 1446.917969 1758.972656 1443.796875 1757.917969 1440.5625 1756.90625 C 1437.246094 1755.851562 1433.972656 1754.683594 1430.734375 1753.355469 C 1427.5 1752.03125 1424.613281 1750.277344 1422.039062 1748.171875 C 1419.464844 1746.023438 1417.398438 1743.414062 1415.839844 1740.253906 C 1414.28125 1737.132812 1413.5 1733.273438 1413.5 1728.710938 C 1413.5 1723.875 1414.472656 1719.664062 1416.425781 1716.15625 C 1418.375 1712.644531 1420.910156 1709.722656 1424.066406 1707.460938 C 1427.1875 1705.199219 1430.65625 1703.519531 1434.480469 1702.46875 C 1438.261719 1701.414062 1442.042969 1700.910156 1445.75 1700.910156 C 1452.574219 1700.910156 1458.421875 1702.117188 1463.296875 1704.535156 C 1468.132812 1706.953125 1471.796875 1709.839844 1474.253906 1713.152344 L 1466.144531 1719.703125 Z M 1466.0625 1719.625 " fill-opacity="1" fill-rule="nonzero"/></g><g clip-path="url(#47385845aa)"><path fill="#ff0000" d="M 1534.773438 1806.855469 C 1527.167969 1806.855469 1520.929688 1805.53125 1516.09375 1802.917969 C 1511.257812 1800.304688 1507.398438 1796.992188 1504.550781 1793.015625 C 1501.707031 1789.035156 1499.71875 1784.667969 1498.625 1779.949219 C 1497.535156 1775.230469 1496.988281 1770.785156 1496.988281 1766.613281 L 1496.988281 1703.324219 L 1507.242188 1703.324219 L 1507.242188 1765.484375 C 1507.242188 1769.578125 1507.710938 1773.554688 1508.6875 1777.378906 C 1509.621094 1781.238281 1511.179688 1784.667969 1513.324219 1787.632812 C 1515.46875 1790.636719 1518.277344 1793.054688 1521.828125 1794.925781 C 1525.335938 1796.757812 1529.664062 1797.695312 1534.8125 1797.695312 C 1539.960938 1797.695312 1544.25 1796.757812 1547.796875 1794.925781 C 1551.308594 1793.054688 1554.152344 1790.636719 1556.296875 1787.632812 C 1558.441406 1784.628906 1559.964844 1781.238281 1560.9375 1777.378906 C 1561.875 1773.515625 1562.382812 1769.578125 1562.382812 1765.484375 L 1562.382812 1703.324219 L 1572.636719 1703.324219 L 1572.636719 1766.613281 C 1572.636719 1770.785156 1572.089844 1775.234375 1571 1779.949219 C 1569.90625 1784.667969 1567.917969 1788.996094 1565.070312 1793.015625 C 1562.226562 1796.992188 1558.363281 1800.304688 1553.453125 1802.917969 C 1548.539062 1805.53125 1542.335938 1806.855469 1534.851562 1806.855469 Z M 1534.773438 1806.855469 " fill-opacity="1" fill-rule="nonzero"/></g><g clip-path="url(#aefb944bdd)"><path fill="#ff0000" d="M 1647.703125 1719.625 C 1645.519531 1716.585938 1642.710938 1714.128906 1639.277344 1712.292969 C 1635.847656 1710.460938 1631.714844 1709.527344 1626.878906 1709.527344 C 1624.421875 1709.527344 1621.886719 1709.917969 1619.3125 1710.65625 C 1616.738281 1711.398438 1614.398438 1712.566406 1612.332031 1714.167969 C 1610.226562 1715.726562 1608.550781 1717.714844 1607.265625 1720.09375 C 1605.976562 1722.472656 1605.355469 1725.28125 1605.355469 1728.515625 C 1605.355469 1731.753906 1605.976562 1734.40625 1607.1875 1736.511719 C 1608.433594 1738.617188 1610.070312 1740.371094 1612.101562 1741.851562 C 1614.128906 1743.335938 1616.46875 1744.542969 1619.078125 1745.480469 C 1621.691406 1746.414062 1624.421875 1747.390625 1627.269531 1748.324219 C 1630.777344 1749.457031 1634.289062 1750.703125 1637.875 1752.03125 C 1641.421875 1753.355469 1644.621094 1755.109375 1647.46875 1757.253906 C 1650.316406 1759.402344 1652.617188 1762.089844 1654.449219 1765.367188 C 1656.242188 1768.640625 1657.136719 1772.816406 1657.136719 1777.84375 C 1657.136719 1782.875 1656.164062 1787.242188 1654.253906 1790.90625 C 1652.34375 1794.574219 1649.847656 1797.578125 1646.765625 1799.953125 C 1643.683594 1802.332031 1640.175781 1804.089844 1636.238281 1805.21875 C 1632.300781 1806.351562 1628.320312 1806.933594 1624.34375 1806.933594 C 1621.300781 1806.933594 1618.261719 1806.625 1615.21875 1806 C 1612.175781 1805.375 1609.292969 1804.4375 1606.523438 1803.230469 C 1603.753906 1801.984375 1601.179688 1800.421875 1598.839844 1798.511719 C 1596.460938 1796.601562 1594.355469 1794.417969 1592.5625 1791.960938 L 1601.414062 1785.410156 C 1603.597656 1789.035156 1606.679688 1792.039062 1610.617188 1794.457031 C 1614.554688 1796.875 1619.195312 1798.082031 1624.5 1798.082031 C 1627.074219 1798.082031 1629.6875 1797.691406 1632.339844 1796.875 C 1634.988281 1796.054688 1637.40625 1794.847656 1639.550781 1793.167969 C 1641.695312 1791.492188 1643.453125 1789.464844 1644.816406 1787.046875 C 1646.179688 1784.628906 1646.882812 1781.785156 1646.882812 1778.585938 C 1646.882812 1775.078125 1646.179688 1772.152344 1644.816406 1769.8125 C 1643.453125 1767.472656 1641.617188 1765.523438 1639.316406 1763.960938 C 1637.015625 1762.402344 1634.40625 1761.078125 1631.480469 1760.023438 C 1628.515625 1758.972656 1625.4375 1757.917969 1622.199219 1756.90625 C 1618.882812 1755.851562 1615.609375 1754.683594 1612.371094 1753.355469 C 1609.136719 1752.03125 1606.25 1750.277344 1603.675781 1748.171875 C 1601.101562 1746.0625 1599.035156 1743.414062 1597.476562 1740.253906 C 1595.917969 1737.132812 1595.136719 1733.273438 1595.136719 1728.710938 C 1595.136719 1723.875 1596.113281 1719.664062 1598.0625 1716.15625 C 1600.011719 1712.644531 1602.546875 1709.722656 1605.703125 1707.460938 C 1608.824219 1705.199219 1612.292969 1703.519531 1616.117188 1702.46875 C 1619.9375 1701.414062 1623.679688 1700.910156 1627.386719 1700.910156 C 1634.210938 1700.910156 1640.058594 1702.117188 1644.933594 1704.535156 C 1649.769531 1706.953125 1653.433594 1709.839844 1655.929688 1713.152344 L 1647.820312 1719.703125 Z M 1647.703125 1719.625 " fill-opacity="1" fill-rule="nonzero"/></g><path fill="#ff0000" d="M 1709 1804.285156 L 1698.746094 1804.285156 L 1698.746094 1712.488281 L 1664.976562 1712.488281 L 1664.976562 1703.363281 L 1742.808594 1703.363281 L 1742.808594 1712.488281 L 1709.039062 1712.488281 L 1709.039062 1804.285156 Z M 1709 1804.285156 " fill-opacity="1" fill-rule="nonzero"/><path fill="#ff0000" d="M 1748.621094 1804.285156 L 1737.351562 1804.285156 L 1780.984375 1703.363281 L 1790.96875 1703.363281 L 1834.292969 1804.285156 L 1822.867188 1804.285156 L 1811.753906 1777.765625 L 1759.578125 1777.765625 L 1748.582031 1804.285156 Z M 1763.4375 1768.371094 L 1807.929688 1768.371094 L 1785.703125 1714.75 L 1763.476562 1768.371094 Z M 1763.4375 1768.371094 " fill-opacity="1" fill-rule="nonzero"/><path fill="#ff0000" d="M 1849.148438 1703.363281 L 1859.402344 1703.363281 L 1859.402344 1804.285156 L 1849.148438 1804.285156 Z M 1849.148438 1703.363281 " fill-opacity="1" fill-rule="nonzero"/><path fill="#ff0000" d="M 1957.75 1789.308594 L 1958.023438 1789.308594 L 1958.023438 1703.324219 L 1968.277344 1703.324219 L 1968.277344 1804.246094 L 1955.449219 1804.246094 L 1896.722656 1717.441406 L 1896.449219 1717.441406 L 1896.449219 1804.246094 L 1886.195312 1804.246094 L 1886.195312 1703.324219 L 1899.023438 1703.324219 Z M 1957.75 1789.308594 " fill-opacity="1" fill-rule="nonzero"/><path fill="#ff0000" d="M 1994.402344 1804.285156 L 1983.132812 1804.285156 L 2026.769531 1703.363281 L 2036.75 1703.363281 L 2080.074219 1804.285156 L 2068.648438 1804.285156 L 2057.535156 1777.765625 L 2005.359375 1777.765625 L 1994.363281 1804.285156 Z M 2009.222656 1768.371094 L 2053.714844 1768.371094 L 2031.488281 1714.75 L 2009.261719 1768.371094 Z M 2009.222656 1768.371094 " fill-opacity="1" fill-rule="nonzero"/><path fill="#ff0000" d="M 2094.894531 1703.363281 L 2124.957031 1703.363281 C 2128.742188 1703.363281 2132.601562 1703.753906 2136.5 1704.574219 C 2140.398438 1705.394531 2143.871094 1706.757812 2146.988281 1708.707031 C 2150.070312 1710.65625 2152.605469 1713.308594 2154.554688 1716.625 C 2156.503906 1719.9375 2157.480469 1724.148438 2157.480469 1729.179688 C 2157.480469 1734.523438 2155.84375 1739.125 2152.605469 1743.0625 C 2149.367188 1747 2145 1749.613281 2139.582031 1750.820312 L 2139.582031 1751.09375 C 2146.132812 1751.835938 2151.550781 1754.410156 2155.878906 1758.738281 C 2160.210938 1763.066406 2162.355469 1768.914062 2162.355469 1776.363281 C 2162.355469 1780.535156 2161.457031 1784.355469 2159.703125 1787.828125 C 2157.949219 1791.296875 2155.453125 1794.261719 2152.253906 1796.679688 C 2149.019531 1799.097656 2145.078125 1800.96875 2140.4375 1802.292969 C 2135.796875 1803.621094 2130.574219 1804.285156 2124.800781 1804.285156 L 2094.933594 1804.285156 L 2094.933594 1703.363281 Z M 2105.1875 1747.546875 L 2125.855469 1747.546875 C 2128.3125 1747.546875 2130.808594 1747.273438 2133.339844 1746.6875 C 2135.875 1746.101562 2138.175781 1745.128906 2140.242188 1743.765625 C 2142.347656 1742.398438 2144.027344 1740.566406 2145.3125 1738.265625 C 2146.601562 1736.003906 2147.222656 1733.195312 2147.222656 1729.84375 C 2147.222656 1726.488281 2146.601562 1723.875 2145.3125 1721.652344 C 2144.027344 1719.429688 2142.308594 1717.597656 2140.125 1716.15625 C 2137.941406 1714.710938 2135.371094 1713.699219 2132.445312 1713.074219 C 2129.480469 1712.449219 2126.363281 1712.140625 2123.046875 1712.140625 L 2105.226562 1712.140625 L 2105.226562 1747.507812 Z M 2105.1875 1795.46875 L 2124.296875 1795.46875 C 2128 1795.46875 2131.546875 1795.121094 2134.902344 1794.417969 C 2138.253906 1793.714844 2141.21875 1792.585938 2143.753906 1790.984375 C 2146.289062 1789.425781 2148.277344 1787.359375 2149.796875 1784.863281 C 2151.320312 1782.367188 2152.097656 1779.328125 2152.097656 1775.816406 C 2152.097656 1769.148438 2149.835938 1764.195312 2145.3125 1760.921875 C 2140.789062 1757.644531 2134.394531 1756.007812 2126.128906 1756.007812 L 2105.1875 1756.007812 L 2105.1875 1795.507812 Z M 2105.1875 1795.46875 " fill-opacity="1" fill-rule="nonzero"/><path fill="#ff0000" d="M 2195.851562 1795.160156 L 2242.917969 1795.160156 L 2242.917969 1804.285156 L 2185.59375 1804.285156 L 2185.59375 1703.363281 L 2195.851562 1703.363281 Z M 2195.851562 1795.160156 " fill-opacity="1" fill-rule="nonzero"/><path fill="#ff0000" d="M 2271.5 1795.433594 L 2325.546875 1795.433594 L 2325.546875 1804.554688 L 2261.246094 1804.554688 L 2261.246094 1703.636719 L 2323.832031 1703.636719 L 2323.832031 1712.761719 L 2271.5 1712.761719 L 2271.5 1747.390625 L 2320.398438 1747.390625 L 2320.398438 1756.515625 L 2271.5 1756.515625 Z M 2271.5 1795.433594 " fill-opacity="1" fill-rule="nonzero"/><path fill="#ff0000" d="M 2355.769531 1782.5625 L 2378.035156 1782.5625 L 2378.035156 1804.828125 L 2355.769531 1804.828125 Z M 2355.769531 1782.5625 " fill-opacity="1" fill-rule="nonzero"/><path fill="#ff0000" d="M 1351.574219 1782.054688 L 1373.84375 1782.054688 L 1373.84375 1804.324219 L 1351.574219 1804.324219 Z M 1351.574219 1782.054688 " fill-opacity="1" fill-rule="nonzero"/><path fill="#ff0000" d="M 637.464844 1782.054688 L 659.730469 1782.054688 L 659.730469 1804.324219 L 637.464844 1804.324219 Z M 637.464844 1782.054688 " fill-opacity="1" fill-rule="nonzero"/></svg>